<?xml version="1.0" encoding="UTF-8"?>
<svg width="20px" height="20px" viewBox="0 0 20 20" version="1.1" xmlns="http://www.w3.org/2000/svg" xmlns:xlink="http://www.w3.org/1999/xlink">
    <title>Icon / Circle / Filled</title>
    <defs>
        <path d="M12,2 C6.48,2 2,6.48 2,12 C2,17.52 6.48,22 12,22 C17.52,22 22,17.52 22,12 C22,6.48 17.52,2 12,2 Z M12,5 C13.66,5 15,6.34 15,8 C15,9.66 13.66,11 12,11 C10.34,11 9,9.66 9,8 C9,6.34 10.34,5 12,5 Z M12,19.2 C9.5,19.2 7.29,17.92 6,15.98 C6.03,13.99 10,12.9 12,12.9 C13.99,12.9 17.97,13.99 18,15.98 C16.71,17.92 14.5,19.2 12,19.2 Z" id="path-1"></path>
    </defs>
    <g id="Page-1" stroke="none" stroke-width="1" fill="none" fill-rule="evenodd">
        <g id="Artboard" transform="translate(-34.000000, -37.000000)">
            <g id="Group" transform="translate(32.000000, 35.000000)">
                <mask id="mask-2" fill="white">
                    <use xlink:href="#path-1"></use>
                </mask>
                <g id="Mask" fill-rule="nonzero"></g>
                <g mask="url(#mask-2)" fill="#000000" fill-opacity="0.54" id="↳-Icon-Color">
                    <g>
                        <rect id="Rectangle" x="0" y="0" width="24" height="24"></rect>
                    </g>
                </g>
            </g>
        </g>
    </g>
</svg>